<?xml version="1.0" standalone="no"?><!DOCTYPE svg PUBLIC "-//W3C//DTD SVG 1.1//EN" "http://www.w3.org/Graphics/SVG/1.1/DTD/svg11.dtd"><svg t="1547128515128" class="icon" style="" viewBox="0 0 1024 1024" version="1.1" xmlns="http://www.w3.org/2000/svg" p-id="2051" xmlns:xlink="http://www.w3.org/1999/xlink" width="200" height="200"><defs><style type="text/css"></style></defs><path d="M508.068908 515.424394a2.416244 2.416244 0 0 0-1.139265 0.851319 1.953026 1.953026 0 0 1 0.20031-0.237868 2.50388 2.50388 0 0 1 0.938955-0.613451z" p-id="2052"></path><path d="M507.417899 515.987767a1.865391 1.865391 0 0 1 0.162753-0.275427 1.865391 1.865391 0 0 0-0.162753 0.275427z" p-id="2053"></path><path d="M507.568132 515.599666a3.230005 3.230005 0 0 1-0.150233 0.500776 2.754268 2.754268 0 0 0 0.150233-0.500776z" p-id="2054"></path><path d="M507.442938 515.962728c0-0.087636 0.062597-0.150233 0.100155-0.225349s-0.062597 0.150233-0.100155 0.225349zM507.467977 515.900131v-0.112674 0.112674zM507.493016 515.799976z" p-id="2055"></path><path d="M507.442938 516.037845a2.979617 2.979617 0 0 1 0.100155-0.400621 3.179928 3.179928 0 0 0-0.100155 0.400621zM507.455458 515.950209l0.087635-0.21283-0.087635 0.21283zM507.718365 515.799976l-0.225349 0.275427z" p-id="2056"></path><path d="M452.6956 737.556117c-18.466116 18.491155-41.539371 31.936991-55.686293 36.018315l-22.835387-37.708434c14.885567-4.782411 35.054321-14.910606 50.628456-30.49726 16.876152-16.801035 18.779101-32.675635 8.200207-43.242009-10.078117-10.090637-23.536473-8.175169-49.952408 4.344232-36.306261 17.527161-68.681431 20.168754-92.230423-3.380238-27.630317-27.617797-25.727368-71.811281 12.5194-109.982933 18.290844-18.278325 35.555097-27.880705 49.514229-33.151373l21.282981 37.695915a109.319405 109.319405 0 0 0-41.539371 26.178066c-15.849561 15.849561-16.275221 30.747648-7.874703 39.185724 10.265908 10.290947 23.974652 5.721366 52.806831-7.248733 39.185724-18.002898 67.504607-16.538128 90.314955 6.2597 27.14206 27.15458 29.282878 71.097675-15.148474 115.541547z" fill="#FDCE02" p-id="2057"></path><path d="M368.014375 1022.835696a133.056188 133.056188 0 0 1-94.696745-39.210763L39.718136 749.975362a134.170415 134.170415 0 0 1 0-189.355932L561.113608 39.223958A132.993591 132.993591 0 0 1 655.847912 0.000676c2.015623 0 4.068805 0 6.071909 0.137713l223.358624 10.215831a133.957585 133.957585 0 0 1 127.697885 127.697885l10.22835 223.383663a134.132857 134.132857 0 0 1-39.110607 100.818732L462.71112 983.587375A133.043669 133.043669 0 0 1 368.014375 1022.835696zM655.847912 44.719975A88.587278 88.587278 0 0 0 592.775172 70.835444L71.342142 592.168319a89.388519 89.388519 0 0 0 0 126.13296l233.599493 233.662091a89.213248 89.213248 0 0 0 126.14548 0l521.395472-521.382953a89.363481 89.363481 0 0 0 26.052872-67.154064L968.357187 140.055209A89.17569 89.17569 0 0 0 883.225263 55.086038l-223.346104-10.215831c-1.339576 0-2.704191-0.087636-4.043767-0.087635z" fill="#222222" p-id="2058"></path><path d="M674.076159 511.380628L512.175272 349.49226 548.95727 312.760339l131.128201 131.165759 64.362238-64.399796 30.760167 30.760167zM784.835295 400.621492L622.997005 238.720605l99.892296-99.929855 30.046561 30.046561-63.197933 63.147856 33.639629 33.62711 59.567307-59.567308 29.758615 29.783654-59.542268 59.529749 38.40952 38.447079 66.503056-66.503055 30.046561 30.046561zM452.294979 409.385072l-47.999381 48.02442 112.361619 211.402597 37.933783-37.958822-30.046561-53.094778 46.321782-46.321782 54.008694 29.019971 39.386034-39.386034z m50.177757 135.710301l-24.725816-43.955615c-6.735437-12.018624-16.550647-26.666323-23.786861-38.672428l0.488257-0.500776c12.043663 7.236213 26.916711 16.275221 39.386034 23.048216l44.443872 24.262598z" fill="#FDCE02" p-id="2059"></path></svg>