<?xml version="1.0" standalone="no"?><!DOCTYPE svg PUBLIC "-//W3C//DTD SVG 1.1//EN" "http://www.w3.org/Graphics/SVG/1.1/DTD/svg11.dtd"><svg t="1547129062738" class="icon" style="" viewBox="0 0 1024 1024" version="1.1" xmlns="http://www.w3.org/2000/svg" p-id="2306" xmlns:xlink="http://www.w3.org/1999/xlink" width="200" height="200"><defs><style type="text/css"></style></defs><path d="M373.122523 0h277.068461a156.328122 156.328122 0 0 1 155.943687 155.916226v358.898394h24.43914a156.300662 156.300662 0 0 1 155.916227 155.916227V722.190341a156.52034 156.52034 0 0 1-155.916227 155.916226h-28.887613v35.203347a109.097423 109.097423 0 0 1-32.210239 77.244161 109.042504 109.042504 0 0 1-77.24416 32.127859H331.026789A108.960124 108.960124 0 0 1 253.782629 990.636454a109.097423 109.097423 0 0 1-32.12786-77.244161v-35.203347H192.767156A156.300662 156.300662 0 0 1 36.850929 722.190341v-51.486954a156.52034 156.52034 0 0 1 155.916227-155.916227h24.43914V155.916226A156.52034 156.52034 0 0 1 373.122523 0z m428.536215 834.775147H830.436513a112.777024 112.777024 0 0 0 112.584806-112.584806v-51.486954a112.804484 112.804484 0 0 0-112.584806-112.420048H192.767156a112.749564 112.749564 0 0 0-112.420048 112.420048V722.190341a112.777024 112.777024 0 0 0 112.420048 112.584806H221.654769v-0.686493A109.097423 109.097423 0 0 1 253.782629 756.789574a109.042504 109.042504 0 0 1 77.24416-32.127859h361.259929a108.960124 108.960124 0 0 1 77.244161 32.127859 109.097423 109.097423 0 0 1 32.210238 77.244161z m-470.631949-66.589794a65.683623 65.683623 0 0 0-46.489287 19.359095 65.546325 65.546325 0 0 0-19.221796 46.489287v79.386018a65.601244 65.601244 0 0 0 19.221796 46.489287 65.656164 65.656164 0 0 0 46.489287 19.359094h361.259929a65.656164 65.656164 0 0 0 46.489287-19.359094 65.546325 65.546325 0 0 0 19.221796-46.489287v-79.386018a65.546325 65.546325 0 0 0-19.221796-46.489287 65.683623 65.683623 0 0 0-46.489287-19.359095z m431.584243-253.398193V155.916226a112.831943 112.831943 0 0 0-112.420048-112.420047h-277.068461a112.749564 112.749564 0 0 0-112.420048 112.420047v358.898394z" fill="#222222" p-id="2307"></path><path d="M386.742538 224.510579h249.88335c32.374997 0 32.429916 45.418358 0 45.418358h-249.88335c-32.347537 0-32.429916-45.418358 0-45.418358z m0 148.94146h249.88335c32.374997 0 32.429916 45.445818 0 45.445818h-249.88335c-32.347537 0-32.429916-45.445818 0-45.445818z" fill="#FDCE02" p-id="2308"></path></svg>