<?xml version="1.0" standalone="no"?><!DOCTYPE svg PUBLIC "-//W3C//DTD SVG 1.1//EN" "http://www.w3.org/Graphics/SVG/1.1/DTD/svg11.dtd"><svg t="1547129099389" class="icon" style="" viewBox="0 0 1087 1024" version="1.1" xmlns="http://www.w3.org/2000/svg" p-id="2423" xmlns:xlink="http://www.w3.org/1999/xlink" width="212.3046875" height="200"><defs><style type="text/css"></style></defs><path d="M63.968711 960.003477z m544.026074-447.989571h-31.984355v-63.968711h95.953066v-63.968711h-95.953066v-63.968711h-63.968711v63.968711h-31.984356a95.953066 95.953066 0 1 0 0 191.906133h31.984356v63.968711h-95.953067v63.968711h95.953067v63.968711h63.968711v-63.968711h31.984355a95.953066 95.953066 0 1 0 0-191.906133z m-95.953066 0h-31.984356a31.984355 31.984355 0 0 1 0-63.968711h31.984356z m95.953066 127.937422h-31.984355v-63.968711h31.984355a31.984355 31.984355 0 0 1 0 63.968711z" fill="#FDCE02" p-id="2424"></path><path d="M1087.982617 543.984355C1087.982617 243.553914 844.428703 0 543.998262 0S0 243.553914 0 543.984355C0 711.165191 75.747298 860.281819 194.464881 960.003477H63.968711v63.968711h960.017383v-63.968711h-130.71867c118.814927-99.679939 194.687381-248.768754 194.687381-416.019122z m-305.937313 416.019122H306.048563C161.743495 877.163996 63.968711 722.012059 63.968711 543.984355 63.968711 279.334673 279.306861 63.968711 543.998262 63.968711s479.987832 215.365962 479.987832 480.015644c0 177.999891-97.691347 333.17964-241.968603 416.019122z" fill="#222222" p-id="2425"></path></svg>