<?xml version="1.0" standalone="no"?><!DOCTYPE svg PUBLIC "-//W3C//DTD SVG 1.1//EN" "http://www.w3.org/Graphics/SVG/1.1/DTD/svg11.dtd"><svg t="1547129132668" class="icon" style="" viewBox="0 0 1024 1024" version="1.1" xmlns="http://www.w3.org/2000/svg" p-id="2540" xmlns:xlink="http://www.w3.org/1999/xlink" width="200" height="200"><defs><style type="text/css"></style></defs><path d="M512 0C308.1088 0 142.2208 165.888 142.2208 369.7792 142.2208 565.76 475.392 994.8928 489.5872 1013.056a28.4288 28.4288 0 0 0 44.8 0c14.2208-18.1632 347.392-447.296 347.392-643.2768C881.7792 165.888 715.8912 0 512 0z m0 948.7744C407.4112 810.0608 199.104 505.728 199.104 369.7792c0-172.5184 140.3648-312.8832 312.896-312.8832s312.896 140.3648 312.896 312.8832c0 135.9488-208.3072 440.32-312.896 578.9952z" fill="#222222" p-id="2541"></path><path d="M512 170.6752c-109.7728 0-199.104 89.3312-199.104 199.104s89.3312 199.1168 199.104 199.1168 199.104-89.3312 199.104-199.104-89.3312-199.1168-199.104-199.1168z m0 341.3248A142.2208 142.2208 0 1 1 654.2208 369.7792 142.3872 142.3872 0 0 1 512 512z" fill="#FDCE02" p-id="2542"></path></svg>