<?xml version="1.0" standalone="no"?><!DOCTYPE svg PUBLIC "-//W3C//DTD SVG 1.1//EN" "http://www.w3.org/Graphics/SVG/1.1/DTD/svg11.dtd"><svg t="1547129162585" class="icon" style="" viewBox="0 0 1095 1024" version="1.1" xmlns="http://www.w3.org/2000/svg" p-id="2657" xmlns:xlink="http://www.w3.org/1999/xlink" width="213.8671875" height="200"><defs><style type="text/css"></style></defs><path d="M775.54538 373.237663a27.787642 27.787642 0 1 0 0-55.555742h-159.495591l95.75207-110.896531a27.12324 27.12324 0 0 0-3.63467-39.082478 29.468188 29.468188 0 0 0-40.489447 3.517423l-126.607687 146.559292h11.724743l-126.607686-146.559292a29.468188 29.468188 0 0 0-40.489447-3.517423 27.181863 27.181863 0 0 0-3.634671 39.199725l95.752071 110.896531h-159.397886a27.787642 27.787642 0 1 0 0 55.555742H515.900939v132.157399H318.534427a27.787642 27.787642 0 1 0 0 55.555742h197.366512v151.385977a28.764704 28.764704 0 0 0 57.490325 0v-151.366436h202.05641a27.787642 27.787642 0 1 0 0-55.555742H573.313099V373.237663z" fill="#FDCE02" p-id="2658"></path><path d="M547.166922 1022.729819h-0.214954a105.073241 105.073241 0 0 1-69.547269-25.755352L42.885711 610.780963c-16.141063-14.323728-27.983054-28.960116-34.939735-43.166597-11.333919-23.078203-8.441815-41.446968-4.162284-52.761345s14.51914-26.927827 38.144498-36.639823c14.734094-6.096867 33.1224-9.184382 54.715469-9.184382h62.688294V96.69005A96.240602 96.240602 0 0 1 255.377143 0.31266h591.435136a96.338308 96.338308 0 0 1 96.045189 96.475096V152.030839a32.164879 32.164879 0 0 1-64.310217 0V96.69005A31.949926 31.949926 0 0 0 846.929526 64.486088H255.279436a32.262585 32.262585 0 0 0-31.617724 32.047632v404.503645A32.125797 32.125797 0 0 1 191.516374 533.202244H96.721824c-18.368765 0-27.357734 2.98981-31.402771 4.709439 1.719629 3.908248 6.526774 12.291439 20.401054 24.582878l434.40174 386.076257c14.323728 12.819053 39.629632 12.819053 54.051067 0l434.382199-386.095798c13.678867-12.174192 18.583718-20.518301 20.088393-24.465631-3.908248-1.817335-13.034006-5.022098-31.617724-5.022098H910.633965a32.125797 32.125797 0 0 1-32.145338-32.145338v-114.843861a32.164879 32.164879 0 1 1 64.310217 0V468.989733h54.26602c21.495363 0 40.176787 3.107057 55.028129 9.184382 23.605817 9.770619 33.864967 25.403611 38.144498 36.757071s7.152093 29.702683-4.064577 52.761345c-7.054387 14.323728-18.700966 28.842869-34.724782 43.166597L616.909603 996.857219A104.760582 104.760582 0 0 1 547.166922 1022.729819z" fill="#222222" p-id="2659"></path></svg>